<?xml version="1.0" encoding="UTF-8"?>
<svg id="Layer_1" data-name="Layer 1" xmlns="http://www.w3.org/2000/svg" viewBox="0 0 773.65 748.24">
  <defs>
    <style>
      .cls-1 {
        fill: #a1489b;
      }

      .cls-2 {
        fill: #00acbb;
      }
    </style>
  </defs>
  <path class="cls-2" d="M544.9,217.23c.71.73,3.12,3.84,2.45,4.74-61.85,58.08-121.16,118.87-182.03,178.14-22.43,25.44-.81,65.15,32.43,58.34,12.34-2.53,33.47-24.96,43.36-34.37,35.34-33.66,68.45-69.79,103.57-103.7l50.38-47.8c46.84,51.71,61.6,132.13,48.37,199.67-21.98,112.2-124.95,207.92-243.16,199.22l80.92-86.82c61.57-40.86,97.71-113.59,92.65-187.79-4.4,2.5-9.18,6.34-12.96,9.7-33.32,29.57-63.04,67.34-96.46,96.56-96.13,84.06-233.77-37.79-163.67-139.05,58.62-70.15,125.19-133.05,190.2-197.22l3.27.65c15.89,17.52,34.21,32.89,50.67,49.76Z"/>
  <path class="cls-1" d="M320.45,236.69c-41.62,41.59-91.59,83.26-106.35,143.04-25.63,103.79,50.43,201.25,151.18,220.51-17.14,17.16-32.43,36.28-49.19,53.78-2.7,2.82-7.23,8.48-11.02,8.5s-27.1-10.69-32.26-13.22c-163.72-80.41-177.44-292.53-55.25-416.36L391.21,63.18l3.27.65,48.45,51.07c-39.95,41.46-81.76,81.11-122.47,121.79Z"/>
</svg>